<svg version="1.1" id="Layer_1" xmlns="http://www.w3.org/2000/svg" xmlns:xlink="http://www.w3.org/1999/xlink" x="0px" y="0px"
	 width="100%" viewBox="0 0 300 300" enable-background="new 0 0 300 300" xml:space="preserve">
<path fill="#FDFEFD" opacity="1.000000" stroke="none" 
	d="
M301.000000,107.000000 
	C301.000000,171.999985 301.000000,236.499985 301.000000,301.000000 
	C201.000031,301.000000 101.000061,301.000000 1.000066,301.000000 
	C1.000044,201.000046 1.000044,101.000092 1.000022,1.000107 
	C100.999939,1.000071 200.999878,1.000071 300.999908,1.000036 
	C301.000000,36.166668 301.000000,71.333336 301.000000,107.000000 
M211.004318,203.016144 
	C211.004318,203.016144 210.967102,203.015579 211.000443,202.239059 
	C209.732254,198.501877 208.613327,194.703217 207.113602,191.061401 
	C206.599716,189.813553 205.087784,188.034561 204.108063,188.081741 
	C199.556549,188.300888 195.031754,189.075607 190.497406,189.651489 
	C190.547913,189.808426 190.598419,189.965363 190.488098,190.703918 
	C190.541595,191.098923 190.595093,191.493912 190.321747,192.789093 
	C190.431564,206.230072 190.541397,219.671066 190.481995,233.659943 
	C190.666763,234.324997 190.851532,234.990051 191.903763,235.967743 
	C194.489456,235.967743 197.075134,235.967743 199.796967,235.967743 
	C199.796967,224.696884 199.796967,213.866653 199.973465,202.413864 
	C200.145172,202.177368 200.316879,201.940872 200.488571,201.704376 
	C200.648392,201.904572 200.878418,202.080322 200.957932,202.308502 
	C204.499008,212.469650 208.120117,222.604675 211.489639,232.822617 
	C212.315887,235.328156 213.528732,235.982727 216.066513,236.127060 
	C219.906570,236.345490 222.139450,235.506119 223.095688,231.307526 
	C224.156219,226.651031 226.007111,222.163849 227.655106,217.654556 
	C229.670212,212.140701 231.832031,206.680496 233.915710,202.107864 
	C233.915710,213.349884 233.915710,224.591904 233.915710,235.737045 
	C237.700577,235.737045 240.798218,235.737045 243.861511,235.737045 
	C243.861511,219.742905 243.861511,204.035034 243.861511,187.566620 
	C238.669327,188.078629 233.891632,188.549759 228.685059,189.623001 
	C225.007996,200.282211 221.330933,210.941422 217.518982,221.991684 
	C216.566284,219.335434 215.788086,217.165695 215.044083,214.222656 
	C213.686478,210.493988 212.328873,206.765335 211.004318,203.016144 
M150.718445,188.239029 
	C147.506332,188.239029 144.294205,188.239029 141.198013,188.239029 
	C141.198013,199.174622 141.198013,209.569534 141.114288,220.739685 
	C143.695984,232.582565 149.659225,237.366882 161.246368,236.891632 
	C172.200272,236.442352 178.639816,231.075836 179.537582,219.774918 
	C180.360626,209.414566 179.712326,198.937347 179.712326,188.435883 
	C176.117538,188.435883 172.772659,188.435883 169.152603,188.435883 
	C169.152603,198.306656 169.199768,207.770020 169.131577,217.232559 
	C169.100128,221.598160 168.206161,225.689560 163.250778,227.042664 
	C158.262939,228.404663 154.486038,226.622757 152.065613,221.073227 
	C151.904434,218.607819 151.654419,216.144440 151.598358,213.676651 
	C151.411575,205.452957 151.294388,197.227692 150.718445,188.239029 
M95.555916,234.138367 
	C95.459930,232.424011 95.363945,230.709641 95.503448,228.489227 
	C95.004852,228.122055 94.506256,227.754883 93.090248,227.194336 
	C88.157364,227.194336 83.224472,227.194336 78.343643,227.194336 
	C78.343643,223.177734 78.343643,219.812531 78.343643,215.981277 
	C83.480309,215.981277 88.222496,215.981277 92.821465,215.981277 
	C92.821465,212.928452 92.821465,210.372391 92.821465,207.305069 
	C87.730629,207.305069 82.995720,207.305069 78.329102,207.305069 
	C78.329102,203.554337 78.329102,200.345337 78.329102,196.802551 
	C83.812447,196.802551 88.913254,196.802551 94.126770,196.802551 
	C94.126770,193.722122 94.126770,190.994034 94.126770,188.344910 
	C85.030083,188.344910 76.285393,188.344910 67.368988,188.344910 
	C67.368988,204.101791 67.368988,219.539307 67.658455,235.748962 
	C76.415970,235.835358 85.173447,235.937347 93.931137,235.962784 
	C94.377304,235.964096 94.825394,235.306610 95.555916,234.138367 
M283.681061,235.384384 
	C283.681061,232.784271 283.681061,230.184143 283.681061,227.125610 
	C277.632538,227.125610 272.047974,227.125610 266.388855,227.125610 
	C266.388855,223.264893 266.388855,219.891861 266.388855,216.108612 
	C271.485931,216.108612 276.247467,216.108612 281.173218,216.108612 
	C281.173218,213.114014 281.173218,210.542160 281.173218,207.538818 
	C276.119415,207.538818 271.352051,207.538818 266.318268,207.538818 
	C266.318268,203.871643 266.318268,200.639435 266.318268,196.923248 
	C271.754944,196.923248 276.997986,196.923248 282.370728,196.923248 
	C282.370728,193.723068 282.370728,191.013214 282.370728,188.322906 
	C273.259613,188.322906 264.516052,188.322906 255.323883,188.322906 
	C255.323883,203.073547 255.306458,217.525360 255.354889,231.976929 
	C255.359055,233.217422 255.800232,234.456451 256.935455,235.975067 
	C265.616608,235.901337 274.297791,235.827606 283.681061,235.384384 
M250.835724,100.500015 
	C250.837204,82.673813 250.753601,64.846817 250.918457,47.022121 
	C250.948212,43.805275 249.900284,41.811329 247.364395,39.968906 
	C239.416473,34.194401 231.114349,28.766102 223.884674,22.177469 
	C213.030121,12.285400 201.250824,8.104066 186.292740,9.397039 
	C169.919556,10.812333 153.330719,9.581704 136.842072,9.865185 
	C125.874878,10.053739 119.826363,15.282349 119.020607,26.083942 
	C118.293472,35.831593 118.974327,45.681252 118.962158,55.485832 
	C118.926170,84.473640 119.349983,113.473671 118.632530,142.445114 
	C118.104218,163.779297 127.611694,168.176086 144.279938,167.927597 
	C160.769897,167.681763 177.263306,167.647766 193.755447,167.574081 
	C206.249969,167.518250 218.754333,167.846756 231.237045,167.454407 
	C244.446762,167.039200 250.268173,161.009811 251.058350,147.972687 
	C251.179230,145.978180 251.267014,143.976715 251.249252,141.979538 
	C251.129242,128.486206 250.976715,114.993156 250.835724,100.500015 
M102.945129,176.198242 
	C110.478043,174.758377 118.010948,173.318527 126.645416,171.668106 
	C123.317108,168.941315 120.863159,167.576904 119.340721,165.522263 
	C117.377235,162.872391 115.346748,162.561462 112.462990,163.403763 
	C109.118240,164.380692 105.704308,165.226364 102.262360,165.740021 
	C97.139366,166.504532 94.456398,164.538101 93.233444,159.492889 
	C92.254478,155.454269 91.368057,151.393234 90.439423,147.342407 
	C82.564674,112.991577 74.605736,78.659691 66.874130,44.276684 
	C64.957230,35.752110 66.072960,34.107559 74.562546,32.022137 
	C86.345665,29.127676 98.237480,26.677771 110.051933,23.906116 
	C111.482384,23.570532 113.293167,22.740641 113.940765,21.586220 
	C115.772232,18.321415 117.090759,14.768859 119.215492,9.963290 
	C100.095757,15.035172 81.583679,19.459341 63.414978,25.007889 
	C56.271023,27.189583 53.960560,33.652485 55.472378,41.930595 
	C57.054737,50.594925 59.031609,59.190979 60.983406,67.783401 
	C68.017059,98.747726 75.082848,129.704834 82.200226,160.650009 
	C84.968681,172.686768 90.696075,177.105270 102.945129,176.198242 
M151.459518,267.500000 
	C151.459518,274.913361 151.459518,282.326721 151.459518,289.690521 
	C155.099304,289.690521 157.837860,289.690521 161.206451,289.690521 
	C161.206451,280.034851 161.206451,270.728027 161.206451,259.936859 
	C167.091522,268.952637 172.091965,276.605743 177.084549,284.263977 
	C181.426636,290.924408 182.293747,291.256561 190.585663,289.309845 
	C190.585663,275.092224 190.585663,260.852905 190.585663,246.399658 
	C187.521561,246.399658 184.784988,246.399658 181.254578,246.399658 
	C181.254578,255.632034 181.254578,264.597351 181.254578,273.562683 
	C175.507019,266.675354 170.891769,259.603485 166.293045,252.520905 
	C161.523361,245.175034 161.203201,245.034851 151.459991,246.768097 
	C151.459991,253.253632 151.459991,259.877045 151.459518,267.500000 
M47.836559,214.047592 
	C48.579594,213.676514 49.354816,213.358017 50.060551,212.925995 
	C55.458965,209.621262 57.873936,204.520874 56.887222,198.571625 
	C55.981594,193.111267 52.660622,189.455414 45.864128,188.807175 
	C38.369411,188.092361 30.753897,188.644058 22.956892,188.644058 
	C22.956892,196.537476 22.956892,204.349487 22.956892,212.161484 
	C22.956892,220.075470 22.956892,227.989441 22.956892,235.827423 
	C26.829859,235.827423 29.957857,235.827423 33.741745,235.827423 
	C33.741745,229.770111 33.741745,223.893631 33.741745,218.017151 
	C34.229061,217.660278 34.716377,217.303391 35.203693,216.946518 
	C37.393768,218.543930 40.094357,219.754578 41.661873,221.823639 
	C44.456787,225.512833 46.467548,229.786392 49.029018,233.668564 
	C49.724945,234.723312 51.162823,235.793213 52.356876,235.916031 
	C55.429966,236.232132 58.557213,236.021759 63.398914,236.021759 
	C57.483410,228.108963 52.377991,221.279755 47.836559,214.047592 
M123.140373,196.007141 
	C125.655113,196.701080 128.169846,197.395004 130.685516,198.089203 
	C132.629547,189.195801 132.026398,188.113922 123.444511,187.404327 
	C120.008942,187.120255 116.438423,187.420547 113.033653,188.033905 
	C106.335510,189.240570 102.023689,193.515686 101.125488,199.217300 
	C100.152199,205.395554 102.876152,210.543716 109.116104,213.947922 
	C111.737961,215.378265 114.556740,216.443848 117.209221,217.822937 
	C119.904419,219.224197 123.357285,221.087357 121.684830,224.410873 
	C120.688927,226.389938 116.913681,228.108627 114.489136,227.983490 
	C110.026871,227.753174 105.639259,226.076462 101.125175,224.979385 
	C101.125175,226.702148 100.749313,228.948318 101.246025,230.981323 
	C101.632133,232.561630 102.815132,234.700287 104.145607,235.170105 
	C110.915543,237.560684 117.860779,237.659866 124.692734,235.207489 
	C129.438950,233.503845 132.470917,230.273682 133.194794,225.095016 
	C133.944305,219.732834 132.735779,215.053131 128.166977,211.851654 
	C125.601791,210.054138 122.651466,208.808105 119.882935,207.298447 
	C116.646255,205.533478 111.563179,204.652023 112.598129,199.838242 
	C113.617424,195.097275 118.463318,195.913895 123.140373,196.007141 
M215.570953,245.352036 
	C213.264603,245.635559 210.912079,245.719757 208.660843,246.241165 
	C202.677399,247.626968 198.842209,251.568237 198.272705,256.939636 
	C197.659409,262.724365 200.282135,266.906006 205.258057,269.627869 
	C207.728683,270.979309 210.666687,271.654907 212.815765,273.362885 
	C214.764465,274.911621 215.929504,277.446411 217.440063,279.546478 
	C215.062149,280.683411 212.632721,282.845001 210.317825,282.728577 
	C206.374573,282.530304 202.503326,280.900330 198.015854,279.717407 
	C199.483582,283.192413 195.610809,288.639343 201.928299,289.570862 
	C207.404175,290.378235 213.172623,290.479370 218.639511,289.693878 
	C223.654526,288.973297 227.271835,285.532074 228.015579,280.008606 
	C228.779739,274.333466 226.911484,269.830322 221.854065,266.939056 
	C219.409607,265.541595 216.784866,264.463440 214.291290,263.146912 
	C211.709595,261.783905 208.009308,260.762756 209.067352,256.952972 
	C210.176941,252.957611 214.072296,253.039566 217.392563,253.415024 
	C220.239685,253.736969 223.017258,254.674103 225.852356,255.345505 
	C226.703705,246.548004 226.704086,246.544983 218.422501,245.482697 
	C217.764679,245.398315 217.096405,245.395432 215.570953,245.352036 
M128.630554,275.569916 
	C128.400253,273.150635 129.167496,271.837830 131.931747,271.974060 
	C135.507126,272.150269 139.097763,272.017029 142.591599,272.017029 
	C142.591599,268.926086 142.591599,266.671143 142.591599,263.865845 
	C137.860016,263.865845 133.447205,263.865845 129.030792,263.865845 
	C129.030792,260.408905 129.030792,257.515900 129.030792,253.995422 
	C134.144440,253.995422 138.869247,253.995422 143.590942,253.995422 
	C143.590942,251.105652 143.590942,248.860733 143.590942,246.494385 
	C135.213852,246.494385 127.168648,246.494385 119.109009,246.494385 
	C119.109009,261.127075 119.109009,275.365265 119.109009,289.671448 
	C127.838264,289.671448 136.218216,289.671448 144.650604,289.671448 
	C144.650604,287.024445 144.650604,284.764618 144.650604,281.942993 
	C139.316772,281.942993 134.238403,281.942993 128.627472,281.942993 
	C128.627472,279.767670 128.627472,278.143738 128.630554,275.569916 
M104.524025,281.960388 
	C102.102798,281.960388 99.681580,281.960388 96.752716,281.960388 
	C96.752716,269.654816 96.752716,258.088684 96.752716,246.406250 
	C93.323418,246.406250 90.418045,246.406250 87.395081,246.406250 
	C87.395081,261.061798 87.395081,275.410583 87.395081,289.778442 
	C96.039276,289.778442 104.290863,289.778442 112.702515,289.778442 
	C112.702515,287.115417 112.702515,284.735413 112.702515,281.960358 
	C110.083206,281.960358 107.782310,281.960358 104.524025,281.960388 
M86.864342,63.866161 
	C86.933365,66.018646 86.563705,68.319069 87.222504,70.272667 
	C87.677071,71.620613 89.726814,73.565971 90.768150,73.399193 
	C98.378273,72.180344 105.913612,70.494499 113.265938,68.998100 
	C114.135262,54.938824 114.135262,54.938824 109.895111,52.587681 
	C104.609512,60.068466 97.406807,59.994671 89.439026,56.489502 
	C88.459976,59.054199 87.705902,61.029564 86.864342,63.866161 
M99.223663,53.124432 
	C105.254799,51.194031 108.042778,47.040436 106.577278,42.168842 
	C105.225800,37.676231 101.138481,35.099033 96.585945,35.868954 
	C92.322746,36.589943 88.978355,40.541470 89.184685,44.613831 
	C89.426117,49.378994 92.838547,52.556759 99.223663,53.124432 
M109.775246,99.112259 
	C116.774712,96.956375 111.239456,91.587822 114.019760,87.242111 
	C105.985229,89.100426 99.442200,90.613770 92.750771,92.161438 
	C93.066353,94.049828 93.347290,95.341438 93.488800,96.648140 
	C93.984047,101.221001 95.882767,103.180824 100.713272,101.229080 
	C103.296532,100.185333 106.190468,99.910515 109.775246,99.112259 
M107.532944,113.036652 
	C104.513412,113.804382 101.493881,114.572113 98.163567,115.418861 
	C98.939079,118.848114 99.648598,121.985504 100.439362,125.482193 
	C104.898712,124.592110 108.892860,123.794876 112.916969,122.991661 
	C112.916969,119.104118 112.916969,115.677139 112.916969,111.910980 
	C111.199432,112.289566 109.784012,112.601555 107.532944,113.036652 
M104.074104,141.399933 
	C104.613373,143.787094 105.152641,146.174255 105.683739,148.525238 
	C113.821930,147.482574 114.970291,145.413223 112.617088,136.371414 
	C110.698410,136.787247 108.662102,136.950104 106.883209,137.713120 
	C105.719460,138.212296 104.928658,139.580978 104.074104,141.399933 
z"/>
<path fill="#E7672D" opacity="1.000000" stroke="none" 
	d="
M250.835205,101.000015 
	C250.976715,114.993156 251.129242,128.486206 251.249252,141.979538 
	C251.267014,143.976715 251.179230,145.978180 251.058350,147.972687 
	C250.268173,161.009811 244.446762,167.039200 231.237045,167.454407 
	C218.754333,167.846756 206.249969,167.518250 193.755447,167.574081 
	C177.263306,167.647766 160.769897,167.681763 144.279938,167.927597 
	C127.611694,168.176086 118.104218,163.779297 118.632530,142.445114 
	C119.349983,113.473671 118.926170,84.473640 118.962158,55.485832 
	C118.974327,45.681252 118.293472,35.831593 119.020607,26.083942 
	C119.826363,15.282349 125.874878,10.053739 136.842072,9.865185 
	C153.330719,9.581704 169.919556,10.812333 186.292740,9.397039 
	C201.250824,8.104066 213.030121,12.285400 223.884674,22.177469 
	C231.114349,28.766102 239.416473,34.194401 247.364395,39.968906 
	C249.900284,41.811329 250.948212,43.805275 250.918457,47.022121 
	C250.753601,64.846817 250.837204,82.673813 250.835205,101.000015 
M240.155441,108.500824 
	C240.155441,89.420601 240.155441,70.340385 240.155441,50.928402 
	C232.244797,50.928402 225.251297,51.202541 218.287033,50.868149 
	C205.915756,50.274136 200.196548,44.254219 199.794525,31.958218 
	C199.723755,29.793434 199.516388,27.599360 199.766388,25.464998 
	C200.258896,21.260380 198.482315,20.013855 194.416092,20.060476 
	C177.586273,20.253441 160.753510,20.221703 143.921844,20.211126 
	C130.102448,20.202442 129.112106,21.126694 129.121399,34.883888 
	C129.143692,67.882103 129.189163,100.880295 129.214035,133.878494 
	C129.217545,138.543777 128.905045,143.224564 129.189209,147.870636 
	C129.581619,154.286438 131.930038,156.876923 137.538849,156.897736 
	C168.368408,157.012100 199.198944,157.079376 230.028137,156.940994 
	C237.795547,156.906128 240.081360,154.234619 240.123489,146.497375 
	C240.190613,134.165466 240.144775,121.832954 240.155441,108.500824 
z"/>
<path fill="#1E5093" opacity="1.000000" stroke="none" 
	d="
M102.522247,176.243530 
	C90.696075,177.105270 84.968681,172.686768 82.200226,160.650009 
	C75.082848,129.704834 68.017059,98.747726 60.983406,67.783401 
	C59.031609,59.190979 57.054737,50.594925 55.472378,41.930595 
	C53.960560,33.652485 56.271023,27.189583 63.414978,25.007889 
	C81.583679,19.459341 100.095757,15.035172 119.215492,9.963290 
	C117.090759,14.768859 115.772232,18.321415 113.940765,21.586220 
	C113.293167,22.740641 111.482384,23.570532 110.051933,23.906116 
	C98.237480,26.677771 86.345665,29.127676 74.562546,32.022137 
	C66.072960,34.107559 64.957230,35.752110 66.874130,44.276684 
	C74.605736,78.659691 82.564674,112.991577 90.439423,147.342407 
	C91.368057,151.393234 92.254478,155.454269 93.233444,159.492889 
	C94.456398,164.538101 97.139366,166.504532 102.262360,165.740021 
	C105.704308,165.226364 109.118240,164.380692 112.462990,163.403763 
	C115.346748,162.561462 117.377235,162.872391 119.340721,165.522263 
	C120.863159,167.576904 123.317108,168.941315 126.645416,171.668106 
	C118.010948,173.318527 110.478043,174.758377 102.522247,176.243530 
z"/>
<path fill="#1A4E93" opacity="1.000000" stroke="none" 
	d="
M215.009888,214.995956 
	C215.788086,217.165695 216.566284,219.335434 217.518982,221.991684 
	C221.330933,210.941422 225.007996,200.282211 229.358078,189.317505 
	C232.857727,189.009171 235.699905,189.191803 238.507019,188.956284 
	C241.980652,188.664795 243.122025,189.950516 243.070557,193.462357 
	C242.890244,205.763885 242.960449,218.069885 243.031784,230.373642 
	C243.047897,233.154327 242.926056,235.068100 239.182236,235.112671 
	C235.312943,235.158768 234.911606,233.345047 234.953369,230.236374 
	C235.080704,220.760559 235.006912,211.281906 234.955917,201.804657 
	C234.954834,201.600296 234.287140,201.399521 233.930420,201.197083 
	C231.832031,206.680496 229.670212,212.140701 227.655106,217.654556 
	C226.007111,222.163849 224.156219,226.651031 223.095688,231.307526 
	C222.139450,235.506119 219.906570,236.345490 216.066513,236.127060 
	C213.528732,235.982727 212.315887,235.328156 211.489639,232.822617 
	C208.120117,222.604675 204.499008,212.469650 200.957932,202.308502 
	C200.878418,202.080322 200.648392,201.904572 200.488571,201.704376 
	C200.316879,201.940872 200.145172,202.177368 199.632050,203.048676 
	C199.290634,213.979248 199.290634,224.274994 199.290634,234.390717 
	C195.827377,234.921219 193.431839,235.288162 191.036301,235.655106 
	C190.851532,234.990051 190.666763,234.324997 190.871536,233.176758 
	C191.463181,232.077576 191.839645,231.462158 191.841614,230.845520 
	C191.880081,218.867523 191.904327,206.889191 191.825150,194.911636 
	C191.818481,193.901520 191.058578,192.896378 190.648590,191.888916 
	C190.595093,191.493912 190.541595,191.098923 190.915741,190.260605 
	C194.597580,189.524231 197.855225,189.264313 201.104980,188.928131 
	C203.979919,188.630753 205.632126,189.623306 206.564240,192.596375 
	C207.687027,196.177551 209.469955,199.551773 210.967102,203.015579 
	C210.967102,203.015579 211.004318,203.016144 210.956375,203.423920 
	C212.275574,207.553116 213.642731,211.274536 215.009888,214.995956 
z"/>
<path fill="#E66930" opacity="1.000000" stroke="none" 
	d="
M151.459747,267.000214 
	C151.459991,259.877045 151.459991,253.253632 151.459991,246.768097 
	C161.203201,245.034851 161.523361,245.175034 166.293045,252.520905 
	C170.891769,259.603485 175.507019,266.675354 181.254578,273.562683 
	C181.254578,264.597351 181.254578,255.632034 181.254578,246.399658 
	C184.784988,246.399658 187.521561,246.399658 190.585663,246.399658 
	C190.585663,260.852905 190.585663,275.092224 190.585663,289.309845 
	C182.293747,291.256561 181.426636,290.924408 177.084549,284.263977 
	C172.091965,276.605743 167.091522,268.952637 161.206451,259.936859 
	C161.206451,270.728027 161.206451,280.034851 161.206451,289.690521 
	C157.837860,289.690521 155.099304,289.690521 151.459518,289.690521 
	C151.459518,282.326721 151.459518,274.913361 151.459747,267.000214 
z"/>
<path fill="#1E5092" opacity="1.000000" stroke="none" 
	d="
M47.554565,214.249069 
	C52.377991,221.279755 57.483410,228.108963 63.398914,236.021759 
	C58.557213,236.021759 55.429966,236.232132 52.356876,235.916031 
	C51.162823,235.793213 49.724945,234.723312 49.029018,233.668564 
	C46.467548,229.786392 44.456787,225.512833 41.661873,221.823639 
	C40.094357,219.754578 37.393768,218.543930 35.203693,216.946518 
	C34.716377,217.303391 34.229061,217.660278 33.741745,218.017151 
	C33.741745,223.893631 33.741745,229.770111 33.741745,235.827423 
	C29.957857,235.827423 26.829859,235.827423 22.956892,235.827423 
	C22.956892,227.989441 22.956892,220.075470 22.956892,212.161484 
	C22.956892,204.349487 22.956892,196.537476 22.956892,188.644058 
	C30.753897,188.644058 38.369411,188.092361 45.864128,188.807175 
	C52.660622,189.455414 55.981594,193.111267 56.887222,198.571625 
	C57.873936,204.520874 55.458965,209.621262 50.060551,212.925995 
	C49.354816,213.358017 48.579594,213.676514 47.554565,214.249069 
M40.431580,209.159348 
	C44.818672,207.791626 46.926449,204.672073 45.414017,200.416870 
	C43.421368,194.810547 38.393467,196.240051 33.876266,196.264969 
	C33.876266,200.802444 33.876266,205.012985 33.876266,209.583344 
	C36.053844,209.482910 37.854465,209.399857 40.431580,209.159348 
z"/>
<path fill="#1E5094" opacity="1.000000" stroke="none" 
	d="
M152.083557,222.014313 
	C154.486038,226.622757 158.262939,228.404663 163.250778,227.042664 
	C168.206161,225.689560 169.100128,221.598160 169.131577,217.232559 
	C169.199768,207.770020 169.152603,198.306656 169.152603,188.435883 
	C172.772659,188.435883 176.117538,188.435883 179.712326,188.435883 
	C179.712326,198.937347 180.360626,209.414566 179.537582,219.774918 
	C178.639816,231.075836 172.200272,236.442352 161.246368,236.891632 
	C149.659225,237.366882 143.695984,232.582565 141.408554,220.028320 
	C141.702820,209.741364 141.702820,200.165787 141.702820,189.994995 
	C144.770279,189.994995 146.883820,189.994995 149.294205,190.289764 
	C149.727570,198.453217 149.704498,206.329697 150.089935,214.186157 
	C150.219238,216.821793 151.389236,219.406387 152.083557,222.014313 
z"/>
<path fill="#1F5193" opacity="1.000000" stroke="none" 
	d="
M122.706291,195.975479 
	C118.463318,195.913895 113.617424,195.097275 112.598129,199.838242 
	C111.563179,204.652023 116.646255,205.533478 119.882935,207.298447 
	C122.651466,208.808105 125.601791,210.054138 128.166977,211.851654 
	C132.735779,215.053131 133.944305,219.732834 133.194794,225.095016 
	C132.470917,230.273682 129.438950,233.503845 124.692734,235.207489 
	C117.860779,237.659866 110.915543,237.560684 104.145607,235.170105 
	C102.815132,234.700287 101.632133,232.561630 101.246025,230.981323 
	C100.749313,228.948318 101.125175,226.702148 101.125175,224.979385 
	C105.639259,226.076462 110.026871,227.753174 114.489136,227.983490 
	C116.913681,228.108627 120.688927,226.389938 121.684830,224.410873 
	C123.357285,221.087357 119.904419,219.224197 117.209221,217.822937 
	C114.556740,216.443848 111.737961,215.378265 109.116104,213.947922 
	C102.876152,210.543716 100.152199,205.395554 101.125488,199.217300 
	C102.023689,193.515686 106.335510,189.240570 113.033653,188.033905 
	C116.438423,187.420547 120.008942,187.120255 123.444511,187.404327 
	C132.026398,188.113922 132.629547,189.195801 130.685516,198.089203 
	C128.169846,197.395004 125.655113,196.701080 122.706291,195.975479 
z"/>
<path fill="#205295" opacity="1.000000" stroke="none" 
	d="
M256.038391,235.696167 
	C255.800232,234.456451 255.359055,233.217422 255.354889,231.976929 
	C255.306458,217.525360 255.323883,203.073547 255.323883,188.322906 
	C264.516052,188.322906 273.259613,188.322906 282.370728,188.322906 
	C282.370728,191.013214 282.370728,193.723068 282.370728,196.923248 
	C276.997986,196.923248 271.754944,196.923248 266.318268,196.923248 
	C266.318268,200.639435 266.318268,203.871643 266.318268,207.538818 
	C271.352051,207.538818 276.119415,207.538818 281.173218,207.538818 
	C281.173218,210.542160 281.173218,213.114014 281.173218,216.108612 
	C276.247467,216.108612 271.485931,216.108612 266.388855,216.108612 
	C266.388855,219.891861 266.388855,223.264893 266.388855,227.125610 
	C272.047974,227.125610 277.632538,227.125610 283.681061,227.125610 
	C283.681061,230.184143 283.681061,232.784271 282.997650,235.326172 
	C273.555634,235.410690 264.796997,235.553436 256.038391,235.696167 
z"/>
<path fill="#1F5193" opacity="1.000000" stroke="none" 
	d="
M95.267960,228.995285 
	C95.363945,230.709641 95.459930,232.424011 94.995430,234.559982 
	C85.412956,234.980011 76.390976,234.978424 67.368988,234.976837 
	C67.368988,219.539307 67.368988,204.101791 67.368988,188.344910 
	C76.285393,188.344910 85.030083,188.344910 94.126770,188.344910 
	C94.126770,190.994034 94.126770,193.722122 94.126770,196.802551 
	C88.913254,196.802551 83.812447,196.802551 78.329102,196.802551 
	C78.329102,200.345337 78.329102,203.554337 78.329102,207.305069 
	C82.995720,207.305069 87.730629,207.305069 92.821465,207.305069 
	C92.821465,210.372391 92.821465,212.928452 92.821465,215.981277 
	C88.222496,215.981277 83.480309,215.981277 78.343643,215.981277 
	C78.343643,219.812531 78.343643,223.177734 78.343643,227.194336 
	C83.224472,227.194336 88.157364,227.194336 93.577454,227.515213 
	C94.465752,228.222488 94.866852,228.608887 95.267960,228.995285 
z"/>
<path fill="#E66B32" opacity="1.000000" stroke="none" 
	d="
M216.001984,245.353363 
	C217.096405,245.395432 217.764679,245.398315 218.422501,245.482697 
	C226.704086,246.544983 226.703705,246.548004 225.852356,255.345505 
	C223.017258,254.674103 220.239685,253.736969 217.392563,253.415024 
	C214.072296,253.039566 210.176941,252.957611 209.067352,256.952972 
	C208.009308,260.762756 211.709595,261.783905 214.291290,263.146912 
	C216.784866,264.463440 219.409607,265.541595 221.854065,266.939056 
	C226.911484,269.830322 228.779739,274.333466 228.015579,280.008606 
	C227.271835,285.532074 223.654526,288.973297 218.639511,289.693878 
	C213.172623,290.479370 207.404175,290.378235 201.928299,289.570862 
	C195.610809,288.639343 199.483582,283.192413 198.015854,279.717407 
	C202.503326,280.900330 206.374573,282.530304 210.317825,282.728577 
	C212.632721,282.845001 215.062149,280.683411 217.440063,279.546478 
	C215.929504,277.446411 214.764465,274.911621 212.815765,273.362885 
	C210.666687,271.654907 207.728683,270.979309 205.258057,269.627869 
	C200.282135,266.906006 197.659409,262.724365 198.272705,256.939636 
	C198.842209,251.568237 202.677399,247.626968 208.660843,246.241165 
	C210.912079,245.719757 213.264603,245.635559 216.001984,245.353363 
z"/>
<path fill="#E46930" opacity="1.000000" stroke="none" 
	d="
M128.629013,276.044861 
	C128.627472,278.143738 128.627472,279.767670 128.627472,281.942993 
	C134.238403,281.942993 139.316772,281.942993 144.650604,281.942993 
	C144.650604,284.764618 144.650604,287.024445 144.650604,289.671448 
	C136.218216,289.671448 127.838264,289.671448 119.109009,289.671448 
	C119.109009,275.365265 119.109009,261.127075 119.109009,246.494385 
	C127.168648,246.494385 135.213852,246.494385 143.590942,246.494385 
	C143.590942,248.860733 143.590942,251.105652 143.590942,253.995422 
	C138.869247,253.995422 134.144440,253.995422 129.030792,253.995422 
	C129.030792,257.515900 129.030792,260.408905 129.030792,263.865845 
	C133.447205,263.865845 137.860016,263.865845 142.591599,263.865845 
	C142.591599,266.671143 142.591599,268.926086 142.591599,272.017029 
	C139.097763,272.017029 135.507126,272.150269 131.931747,271.974060 
	C129.167496,271.837830 128.400253,273.150635 128.629013,276.044861 
z"/>
<path fill="#E46830" opacity="1.000000" stroke="none" 
	d="
M105.002716,281.960388 
	C107.782310,281.960358 110.083206,281.960358 112.702515,281.960358 
	C112.702515,284.735413 112.702515,287.115417 112.702515,289.778442 
	C104.290863,289.778442 96.039276,289.778442 87.395081,289.778442 
	C87.395081,275.410583 87.395081,261.061798 87.395081,246.406250 
	C90.418045,246.406250 93.323418,246.406250 96.752716,246.406250 
	C96.752716,258.088684 96.752716,269.654816 96.752716,281.960388 
	C99.681580,281.960388 102.102798,281.960388 105.002716,281.960388 
z"/>
<path fill="#1C4F92" opacity="1.000000" stroke="none" 
	d="
M86.908081,63.435547 
	C87.705902,61.029564 88.459976,59.054199 89.439026,56.489502 
	C97.406807,59.994671 104.609512,60.068466 109.895111,52.587681 
	C114.135262,54.938824 114.135262,54.938824 113.265938,68.998100 
	C105.913612,70.494499 98.378273,72.180344 90.768150,73.399193 
	C89.726814,73.565971 87.677071,71.620613 87.222504,70.272667 
	C86.563705,68.319069 86.933365,66.018646 86.908081,63.435547 
z"/>
<path fill="#1E5092" opacity="1.000000" stroke="none" 
	d="
M98.818565,53.166203 
	C92.838547,52.556759 89.426117,49.378994 89.184685,44.613831 
	C88.978355,40.541470 92.322746,36.589943 96.585945,35.868954 
	C101.138481,35.099033 105.225800,37.676231 106.577278,42.168842 
	C108.042778,47.040436 105.254799,51.194031 98.818565,53.166203 
z"/>
<path fill="#1F5091" opacity="1.000000" stroke="none" 
	d="
M109.359726,99.200470 
	C106.190468,99.910515 103.296532,100.185333 100.713272,101.229080 
	C95.882767,103.180824 93.984047,101.221001 93.488800,96.648140 
	C93.347290,95.341438 93.066353,94.049828 92.750771,92.161438 
	C99.442200,90.613770 105.985229,89.100426 114.019760,87.242111 
	C111.239456,91.587822 116.774712,96.956375 109.359726,99.200470 
z"/>
<path fill="#215191" opacity="1.000000" stroke="none" 
	d="
M107.950768,112.975098 
	C109.784012,112.601555 111.199432,112.289566 112.916969,111.910980 
	C112.916969,115.677139 112.916969,119.104118 112.916969,122.991661 
	C108.892860,123.794876 104.898712,124.592110 100.439362,125.482193 
	C99.648598,121.985504 98.939079,118.848114 98.163567,115.418861 
	C101.493881,114.572113 104.513412,113.804382 107.950768,112.975098 
z"/>
<path fill="#264C7F" opacity="1.000000" stroke="none" 
	d="
M233.923065,201.652466 
	C234.287140,201.399521 234.954834,201.600296 234.955917,201.804657 
	C235.006912,211.281906 235.080704,220.760559 234.953369,230.236374 
	C234.911606,233.345047 235.312943,235.158768 239.182236,235.112671 
	C242.926056,235.068100 243.047897,233.154327 243.031784,230.373642 
	C242.960449,218.069885 242.890244,205.763885 243.070557,193.462357 
	C243.122025,189.950516 241.980652,188.664795 238.507019,188.956284 
	C235.699905,189.191803 232.857727,189.009171 229.572525,189.016449 
	C233.891632,188.549759 238.669327,188.078629 243.861511,187.566620 
	C243.861511,204.035034 243.861511,219.742905 243.861511,235.737045 
	C240.798218,235.737045 237.700577,235.737045 233.915710,235.737045 
	C233.915710,224.591904 233.915710,213.349884 233.923065,201.652466 
z"/>
<path fill="#245391" opacity="1.000000" stroke="none" 
	d="
M104.022461,140.980072 
	C104.928658,139.580978 105.719460,138.212296 106.883209,137.713120 
	C108.662102,136.950104 110.698410,136.787247 112.617088,136.371414 
	C114.970291,145.413223 113.821930,147.482574 105.683739,148.525238 
	C105.152641,146.174255 104.613373,143.787094 104.022461,140.980072 
z"/>
<path fill="#4F72A0" opacity="1.000000" stroke="none" 
	d="
M190.485168,192.339005 
	C191.058578,192.896378 191.818481,193.901520 191.825150,194.911636 
	C191.904327,206.889191 191.880081,218.867523 191.841614,230.845520 
	C191.839645,231.462158 191.463181,232.077576 190.956146,232.902802 
	C190.541397,219.671066 190.431564,206.230072 190.485168,192.339005 
z"/>
<path fill="#214E89" opacity="1.000000" stroke="none" 
	d="
M152.074585,221.543762 
	C151.389236,219.406387 150.219238,216.821793 150.089935,214.186157 
	C149.704498,206.329697 149.727570,198.453217 149.481018,190.038483 
	C149.964172,189.329285 150.557343,189.166153 151.150528,189.003021 
	C151.294388,197.227692 151.411575,205.452957 151.598358,213.676651 
	C151.654419,216.144440 151.904434,218.607819 152.074585,221.543762 
z"/>
<path fill="#2A5082" opacity="1.000000" stroke="none" 
	d="
M150.934479,188.621033 
	C150.557343,189.166153 149.964172,189.329285 149.184174,189.743698 
	C146.883820,189.994995 144.770279,189.994995 141.702820,189.994995 
	C141.702820,200.165787 141.702820,209.741364 141.450409,219.640686 
	C141.198013,209.569534 141.198013,199.174622 141.198013,188.239029 
	C144.294205,188.239029 147.506332,188.239029 150.934479,188.621033 
z"/>
<path fill="#284B7A" opacity="1.000000" stroke="none" 
	d="
M191.470032,235.811432 
	C193.431839,235.288162 195.827377,234.921219 199.290634,234.390717 
	C199.290634,224.274994 199.290634,213.979248 199.543793,203.359955 
	C199.796967,213.866653 199.796967,224.696884 199.796967,235.967743 
	C197.075134,235.967743 194.489456,235.967743 191.470032,235.811432 
z"/>
<path fill="#4F72A0" opacity="1.000000" stroke="none" 
	d="
M210.983765,202.627319 
	C209.469955,199.551773 207.687027,196.177551 206.564240,192.596375 
	C205.632126,189.623306 203.979919,188.630753 201.104980,188.928131 
	C197.855225,189.264313 194.597580,189.524231 190.996155,189.969788 
	C190.598419,189.965363 190.547913,189.808426 190.497406,189.651489 
	C195.031754,189.075607 199.556549,188.300888 204.108063,188.081741 
	C205.087784,188.034561 206.599716,189.813553 207.113602,191.061401 
	C208.613327,194.703217 209.732254,198.501877 210.983765,202.627319 
z"/>
<path fill="#2D4D79" opacity="1.000000" stroke="none" 
	d="
M67.513718,235.362900 
	C76.390976,234.978424 85.412956,234.980011 94.853760,234.968719 
	C94.825394,235.306610 94.377304,235.964096 93.931137,235.962784 
	C85.173447,235.937347 76.415970,235.835358 67.513718,235.362900 
z"/>
<path fill="#2A4B77" opacity="1.000000" stroke="none" 
	d="
M256.486938,235.835617 
	C264.796997,235.553436 273.555634,235.410690 282.646606,235.510925 
	C274.297791,235.827606 265.616608,235.901337 256.486938,235.835617 
z"/>
<path fill="#4F72A0" opacity="1.000000" stroke="none" 
	d="
M215.026978,214.609314 
	C213.642731,211.274536 212.275574,207.553116 210.939850,203.434174 
	C212.328873,206.765335 213.686478,210.493988 215.026978,214.609314 
z"/>
<path fill="#2D4D79" opacity="1.000000" stroke="none" 
	d="
M95.385696,228.742249 
	C94.866852,228.608887 94.465752,228.222488 94.036163,227.611908 
	C94.506256,227.754883 95.004852,228.122055 95.385696,228.742249 
z"/>
<path fill="#FEFCF9" opacity="1.000000" stroke="none" 
	d="
M240.151062,109.000763 
	C240.144775,121.832954 240.190613,134.165466 240.123489,146.497375 
	C240.081360,154.234619 237.795547,156.906128 230.028137,156.940994 
	C199.198944,157.079376 168.368408,157.012100 137.538849,156.897736 
	C131.930038,156.876923 129.581619,154.286438 129.189209,147.870636 
	C128.905045,143.224564 129.217545,138.543777 129.214035,133.878494 
	C129.189163,100.880295 129.143692,67.882103 129.121399,34.883888 
	C129.112106,21.126694 130.102448,20.202442 143.921844,20.211126 
	C160.753510,20.221703 177.586273,20.253441 194.416092,20.060476 
	C198.482315,20.013855 200.258896,21.260380 199.766388,25.464998 
	C199.516388,27.599360 199.723755,29.793434 199.794525,31.958218 
	C200.196548,44.254219 205.915756,50.274136 218.287033,50.868149 
	C225.251297,51.202541 232.244797,50.928402 240.155441,50.928402 
	C240.155441,70.340385 240.155441,89.420601 240.151062,109.000763 
M182.500000,106.882973 
	C169.912537,106.882973 157.325073,106.882973 144.448639,106.882973 
	C144.448639,110.527145 144.448639,113.585258 144.448639,116.842545 
	C169.382416,116.842545 194.027939,116.842545 218.699432,116.842545 
	C218.699432,113.361748 218.699432,110.303917 218.699432,106.882896 
	C206.731873,106.882896 195.115936,106.882896 182.500000,106.882973 
M153.532043,130.649780 
	C150.751678,130.649780 147.971313,130.649780 144.870270,130.649780 
	C144.612488,134.337067 144.397964,137.405350 144.164688,140.742035 
	C169.324951,140.742035 194.025009,140.742035 218.747986,140.742035 
	C218.747986,137.298859 218.747986,134.228027 218.747986,130.649551 
	C197.110626,130.649551 175.818497,130.649551 153.532043,130.649780 
M196.508347,91.891693 
	C196.508347,89.128662 196.508347,86.365631 196.508347,83.316307 
	C178.768082,83.316307 161.637360,83.316307 144.380127,83.316307 
	C144.301605,84.711868 144.208206,85.691406 144.197449,86.671852 
	C144.120392,93.688622 144.125732,93.684494 151.173904,93.673691 
	C164.456039,93.653336 177.738403,93.671799 191.020035,93.580376 
	C192.756119,93.568420 194.488403,93.003601 196.508347,91.891693 
M175.783127,67.695923 
	C179.915253,63.475143 178.240799,55.742882 172.139221,51.341648 
	C165.363510,57.100002 158.471924,55.952061 150.581238,50.350491 
	C148.969391,54.699883 147.228348,58.362698 146.289642,62.220730 
	C145.342194,66.114693 147.355316,68.085045 151.488342,68.016937 
	C159.292831,67.888344 167.100128,67.932182 175.783127,67.695923 
M170.930664,42.162209 
	C171.314087,37.428795 169.240387,34.077206 164.868134,32.480854 
	C161.023911,31.077291 157.608047,32.453453 155.144089,35.532528 
	C152.571320,38.747551 152.516891,42.648102 155.099533,45.591240 
	C156.848434,47.584255 159.918579,49.323074 162.497711,49.474621 
	C166.579666,49.714470 169.526733,47.029587 170.930664,42.162209 
z"/>
<path fill="#EFF6FA" opacity="1.000000" stroke="none" 
	d="
M40.043335,209.238083 
	C37.854465,209.399857 36.053844,209.482910 33.876266,209.583344 
	C33.876266,205.012985 33.876266,200.802444 33.876266,196.264969 
	C38.393467,196.240051 43.421368,194.810547 45.414017,200.416870 
	C46.926449,204.672073 44.818672,207.791626 40.043335,209.238083 
z"/>
<path fill="#E6652B" opacity="1.000000" stroke="none" 
	d="
M183.000000,106.882935 
	C195.115936,106.882896 206.731873,106.882896 218.699432,106.882896 
	C218.699432,110.303917 218.699432,113.361748 218.699432,116.842545 
	C194.027939,116.842545 169.382416,116.842545 144.448639,116.842545 
	C144.448639,113.585258 144.448639,110.527145 144.448639,106.882973 
	C157.325073,106.882973 169.912537,106.882973 183.000000,106.882935 
z"/>
<path fill="#E7662B" opacity="1.000000" stroke="none" 
	d="
M154.029205,130.649658 
	C175.818497,130.649551 197.110626,130.649551 218.747986,130.649551 
	C218.747986,134.228027 218.747986,137.298859 218.747986,140.742035 
	C194.025009,140.742035 169.324951,140.742035 144.164688,140.742035 
	C144.397964,137.405350 144.612488,134.337067 144.870270,130.649780 
	C147.971313,130.649780 150.751678,130.649780 154.029205,130.649658 
z"/>
<path fill="#E76C34" opacity="1.000000" stroke="none" 
	d="
M196.365387,92.293274 
	C194.488403,93.003601 192.756119,93.568420 191.020035,93.580376 
	C177.738403,93.671799 164.456039,93.653336 151.173904,93.673691 
	C144.125732,93.684494 144.120392,93.688622 144.197449,86.671852 
	C144.208206,85.691406 144.301605,84.711868 144.380127,83.316307 
	C161.637360,83.316307 178.768082,83.316307 196.508347,83.316307 
	C196.508347,86.365631 196.508347,89.128662 196.365387,92.293274 
z"/>
<path fill="#E6692F" opacity="1.000000" stroke="none" 
	d="
M175.344696,67.800140 
	C167.100128,67.932182 159.292831,67.888344 151.488342,68.016937 
	C147.355316,68.085045 145.342194,66.114693 146.289642,62.220730 
	C147.228348,58.362698 148.969391,54.699883 150.581238,50.350491 
	C158.471924,55.952061 165.363510,57.100002 172.139221,51.341648 
	C178.240799,55.742882 179.915253,63.475143 175.344696,67.800140 
z"/>
<path fill="#E66A32" opacity="1.000000" stroke="none" 
	d="
M170.866608,42.548443 
	C169.526733,47.029587 166.579666,49.714470 162.497711,49.474621 
	C159.918579,49.323074 156.848434,47.584255 155.099533,45.591240 
	C152.516891,42.648102 152.571320,38.747551 155.144089,35.532528 
	C157.608047,32.453453 161.023911,31.077291 164.868134,32.480854 
	C169.240387,34.077206 171.314087,37.428795 170.866608,42.548443 
z"/>
</svg>